<svg xmlns="http://www.w3.org/2000/svg" viewBox="0 0 169.66 142.79"><defs><style>.cls-1{fill:#fff;}</style></defs><g id="Capa_2" data-name="Capa 2"><g id="Capa_1-2" data-name="Capa 1"><path class="cls-1" d="M12.82,134.16a44.55,44.55,0,0,0,26.91,8.63,44.43,44.43,0,0,0,27.4-9,50,50,0,0,1-27.37,7.76C29.49,141.55,20,138.79,12.82,134.16Z"/><path class="cls-1" d="M16,95.65c-.12-.1-.37-.08-.69,0a20,20,0,0,0-5.81,13.75,17.9,17.9,0,0,0,.22,2.75c0-.4,0-.81,0-1.22a20.8,20.8,0,0,1,6.51-14.7A.81.81,0,0,0,16,95.65Z"/><path class="cls-1" d="M18.72,86.36A5.44,5.44,0,0,0,20.54,86a45.62,45.62,0,0,1,18.61-4.28c9.49,0,17.05,2.25,23.12,7.06A11.14,11.14,0,0,1,65.34,85C58.29,79.57,49.71,77,39.15,77A45.91,45.91,0,0,0,17,82.48a2.13,2.13,0,0,0-.82,1.62A2.33,2.33,0,0,0,18.72,86.36Z"/><path class="cls-1" d="M77,100.28a24.34,24.34,0,0,0-6-10.13,10.6,10.6,0,0,0-3,4.08,17,17,0,0,1,3.71,7.07,18.37,18.37,0,0,1,.64,3.12,17.09,17.09,0,0,1,.16,2.38A21,21,0,0,1,66.63,121c-5.65,7-15.86,11.74-27.48,11.74s-21.65-5.24-27.29-12.27a18.63,18.63,0,0,1-5-13.53c0-5.92,2.1-9.67,6.72-13.76a5,5,0,0,1,2-1.05,80.8,80.8,0,0,0,8.87-3.66,39.13,39.13,0,0,1,15.52-3c9.17,0,14.8,1.45,20.66,6.14l.19-.41c-5.91-4.74-11.93-6.44-21.28-6.44a40.79,40.79,0,0,0-15.72,3.07,24.07,24.07,0,0,1-4.95,1.69c-2.51,0-4.11-2.46-4.7-4.15-3.27,1.44-3.71,1.9-6.33,4.38C2.93,94.92,0,101.34,0,108.33a26.22,26.22,0,0,0,3.85,13.58c6.56,9.35,20,15.57,35.32,15.57,15.08,0,28.55-6.23,35.18-15.44a26.24,26.24,0,0,0,3.94-13.71,24.86,24.86,0,0,0-.51-5A23.7,23.7,0,0,0,77,100.28Z"/><path class="cls-1" d="M136.06,0c-18.52,0-33.59,12.37-33.59,27.58a22.1,22.1,0,0,0,.16,2.59c0,.25-.07.4-.07.4s-2.66,20.77-2,32.44a12.24,12.24,0,0,0-8,2.22A8.54,8.54,0,0,0,90.86,67a7.2,7.2,0,0,0-1.42,4.8,8.94,8.94,0,0,0,4.17,6.64,4,4,0,0,0,1.2-1.13,2.93,2.93,0,0,0,.35-.65,2.56,2.56,0,0,0,.17-.9,2.62,2.62,0,0,0-.45-1.44,5.36,5.36,0,0,1-.89-1l-.12-.18a3.3,3.3,0,0,1-.66-2.34,3.6,3.6,0,0,1,1.46-2.25,8.46,8.46,0,0,1,5-1.47,11.28,11.28,0,0,1,1.63.12c4,.58,7.23,3.29,6.9,5.8a3.57,3.57,0,0,1-1.47,2.25,8.58,8.58,0,0,1-5.49,1.45,8.12,8.12,0,0,1-.44,1.89,9.57,9.57,0,0,1-.56,1.23,9,9,0,0,1-.52.84,13.3,13.3,0,0,0,1.88.13,12,12,0,0,0,7.23-2.23A7.67,7.67,0,0,0,112,73.48a7.58,7.58,0,0,0-1.27-5.24c8.6-2.25,28.46-9,21.82-21.87,0,0-20.15-1.64-23.42-18.79-.11-.6-.22-1.14-.34-1.65,1.09-11,12.91-19.76,27.32-19.76,15.13,0,27.43,9.6,27.43,21.41a16.56,16.56,0,0,1-.72,4.78,1,1,0,0,0,.22,1l3.92,4.28.14.59a23.33,23.33,0,0,0,2.61-10.67C169.66,12.37,154.59,0,136.06,0Z"/><path class="cls-1" d="M162.25,41.88a1,1,0,0,0-.25-.47l-1.71-1.87a1.06,1.06,0,0,0-1.68.17c-4.29,6.57-8,8.47-17.88,8.95a1.06,1.06,0,0,0-1,1.11,13.11,13.11,0,0,1-.27,3.82,1.06,1.06,0,0,0,1.06,1.28c11.31-.4,16.34-2.69,22.06-10.08a1.13,1.13,0,0,0,.19-.91Z"/><path class="cls-1" d="M94.86,31l4.26,9.54,1.5-10.34L99.91,28a3.31,3.31,0,0,0,.06-.54,4.26,4.26,0,0,0-8.44,0A3.84,3.84,0,0,0,94.86,31Z"/><path class="cls-1" d="M81.39,87a11.26,11.26,0,0,0-2.3-.75,6,6,0,0,0-.61-.12A11.48,11.48,0,0,0,76,86l-.33,0-.39,0a11.22,11.22,0,0,0-1.41.24l-.2.05a11.2,11.2,0,0,0-1.92.68,11.75,11.75,0,0,0-6.9,10.69c0,4.62,2,8.31,5.87,10.23a17.77,17.77,0,0,1-.51,3.06c-5.32-2.24-8.36-7.18-8.36-13.29a14.78,14.78,0,0,1,11-14.26l.3-.07a11.64,11.64,0,0,1,1.31-.25,5.73,5.73,0,0,1,.58-.07h.1a4.21,4.21,0,0,1,.5,0c.14,0,.29,0,.43,0h.54a14.63,14.63,0,0,1,9.47,3.46,6.67,6.67,0,0,1-.78.31A7.93,7.93,0,0,1,81.39,87Z"/><path class="cls-1" d="M91.32,97.74c0,7.31-4.64,13.4-11.63,14.55a24.94,24.94,0,0,0,.28-3.12c5.19-1.21,8.35-5.88,8.35-11.43a11.45,11.45,0,0,0-1.25-5.25,11.86,11.86,0,0,0,1.29-.5,12.4,12.4,0,0,0,1.44-.77A14.68,14.68,0,0,1,91.32,97.74Z"/><path class="cls-1" d="M99.76,75.12a7.88,7.88,0,0,0-3.52-5.65,4.81,4.81,0,0,0-.63.39,2.1,2.1,0,0,0-.88,1.25,1.85,1.85,0,0,0,.36,1.23,5.18,5.18,0,0,1,.92,1,4.16,4.16,0,0,1,.78,2.39,3.92,3.92,0,0,1-.27,1.44,4.42,4.42,0,0,1-.51,1,5.89,5.89,0,0,1-2,1.79c-.16.09-.32.18-.49.26l-.2.09a9,9,0,0,1-3.7.76,7,7,0,0,1-.92,0,5,5,0,0,1-.54-.06,8.15,8.15,0,0,1-1.53-.37h0a6.57,6.57,0,0,1-1.4-.63L85,79.87l-.4-.12a8.23,8.23,0,0,0-1.68-.19h-.09a6.32,6.32,0,0,0-1.27.11,5.76,5.76,0,0,0-.81.17A10.62,10.62,0,0,0,88.91,84l.69,0A12,12,0,0,0,94,83.24h0a10.52,10.52,0,0,0,2.74-1.57,8.41,8.41,0,0,0,2.16-2.54,7.83,7.83,0,0,0,.47-1,6.83,6.83,0,0,0,.41-2.35Q99.79,75.44,99.76,75.12Zm-20.1-1.19a12.89,12.89,0,0,1,2.48-.35c.3,0,.62,0,.93,0a7.12,7.12,0,0,1,4.92-3c0-.13,0-.26,0-.39a8.52,8.52,0,0,1,.86-2.73C84.36,67.74,80.63,70.41,79.66,73.93Z"/><path class="cls-1" d="M89.37,85.53a4.91,4.91,0,0,1-.94,1.12,7,7,0,0,1-2.69,1.54,9.27,9.27,0,0,1-2.93.47,9.61,9.61,0,0,1-1.89-.19,9,9,0,0,1-2.16-.73,9.78,9.78,0,0,0-2.18-.24,10.34,10.34,0,0,0-2.38.28,10.86,10.86,0,0,0,8.61,3.88,11.67,11.67,0,0,0,1.89-.15,11.51,11.51,0,0,0,3-.88A10.7,10.7,0,0,0,90.27,89a8,8,0,0,0,2.51-3.92A13.56,13.56,0,0,1,89.37,85.53ZM83.77,75.1c-.32,0-.64,0-1,0a5.15,5.15,0,0,0-.56,0,11.74,11.74,0,0,0-3.07.53,11.35,11.35,0,0,0-1.48.57A8.58,8.58,0,0,0,72.77,82a15.71,15.71,0,0,1,3.31-.44,5.73,5.73,0,0,1,2.34-2.34,7.4,7.4,0,0,1,1.37-.61,7.82,7.82,0,0,1,1.48-.37,8.65,8.65,0,0,1,1.54-.13h.11a9.23,9.23,0,0,1,2.45.35h0a7.72,7.72,0,0,1,2,.86h0a7.87,7.87,0,0,0,2,.25,8.23,8.23,0,0,0,2.26-.32A10.58,10.58,0,0,0,83.77,75.1Z"/><path class="cls-1" d="M89.37,85.53a4.91,4.91,0,0,1-.94,1.12,7,7,0,0,1-2.69,1.54,9.27,9.27,0,0,1-2.93.47,9.61,9.61,0,0,1-1.89-.19,9,9,0,0,1-2.16-.73,9.78,9.78,0,0,0-2.18-.24,10.34,10.34,0,0,0-2.38.28,10.86,10.86,0,0,0,8.61,3.88,11.67,11.67,0,0,0,1.89-.15,11.51,11.51,0,0,0,3-.88A10.7,10.7,0,0,0,90.27,89a8,8,0,0,0,2.51-3.92A13.56,13.56,0,0,1,89.37,85.53ZM83.77,75.1c-.32,0-.64,0-1,0h-.33a3.08,3.08,0,0,0-.07.68,3.59,3.59,0,0,0,.09.81h0a4,4,0,0,0,.64,1.51,8.81,8.81,0,0,1,2.22.34h0a7.72,7.72,0,0,1,2,.86h0a7.87,7.87,0,0,0,2,.25,8.23,8.23,0,0,0,2.26-.32A10.58,10.58,0,0,0,83.77,75.1Zm-4.36.45a2,2,0,0,0-.23.06,11.35,11.35,0,0,0-1.48.57A8.58,8.58,0,0,0,72.77,82a15.71,15.71,0,0,1,3.31-.44,5.73,5.73,0,0,1,2.34-2.34,7.4,7.4,0,0,1,1.37-.61,1.52,1.52,0,0,1,.2-.06,6.78,6.78,0,0,1-.58-2.75Z"/></g></g></svg>