<svg xmlns="http://www.w3.org/2000/svg" viewBox="0 0 109.28 53.34"><defs><style>.cls-1{fill:#fff;}</style></defs><g id="Capa_2" data-name="Capa 2"><g id="Capa_1-2" data-name="Capa 1"><path class="cls-1" d="M26.67,0A26.67,26.67,0,1,0,53.34,26.67,26.67,26.67,0,0,0,26.67,0Zm-10,45.69A11.32,11.32,0,1,1,28,34.38,11.31,11.31,0,0,1,16.72,45.69Z"/><circle class="cls-1" cx="21.7" cy="29.44" r="3.24"/><path class="cls-1" d="M82.61,0a26.67,26.67,0,1,0,26.67,26.67A26.67,26.67,0,0,0,82.61,0Zm4.46,26.67A11.31,11.31,0,1,1,98.38,15.36,11.31,11.31,0,0,1,87.07,26.67Z"/><circle class="cls-1" cx="92.05" cy="10.42" r="3.24"/></g></g></svg>