<svg xmlns="http://www.w3.org/2000/svg" viewBox="0 0 170.85 148.82"><defs><style>.cls-1{fill:#fff;}.cls-2{fill:#fffbf5;}</style></defs><g id="Capa_2" data-name="Capa 2"><g id="Capa_1-2" data-name="Capa 1"><path class="cls-1" d="M30,74.8a30,30,0,1,0,30,30A30,30,0,0,0,30,74.8Zm2.65,33.64s8.21,9.62,3.25,12-5.8-10.9-5.8-10.9a7,7,0,0,1-4.68-3.44s-14,3.68-15-1.7c0,0-2.74-6.7,15.21-1.23.28.08,1.12-3.17,5.59-2.74,0,0,4.34-15.4,8.84-11.6,4,3.39-6.49,13.1-6.49,13.1C34.51,103,35.18,105.84,32.66,108.44Z"/><path class="cls-1" d="M125.9,113.24a30.28,30.28,0,1,0-24.52,35.1A30.27,30.27,0,0,0,125.9,113.24Zm-12.57,16c-2.66,4.61-13.78-7.71-13.78-7.71-.85,1.11-3.58,2.28-6.6.23,0,0-11,11.6-14.27,7.1s12.7-9.43,12.7-9.43A7,7,0,0,1,94,114.22S89.31,101,94.48,99c0,0,5.33-3.43,2.44,14.9,0,.29,3.34.55,3.7,5.06C100.62,119,116.31,124.15,113.33,129.29Z"/><path class="cls-1" d="M135,29.29C129.91,22.85,120.25,22,120.25,22s-12.24.35-21.39,9.46C90,40.85,90,53.09,90,53.09s1.18,9.62,7.77,14.5c0,0-1.1,3.11,10.66-5.86,0,0,1.37-.79,3.48,1s4.12,3.34,4.12,3.34,4.62.77,4.37,2.33a7.84,7.84,0,0,1-.65,2.28s.66,1.76,1.35,1.56,5.64.91,5.15,1.8a3.85,3.85,0,0,0-.43,2.67c.2.69,6.45,1.13,6.65,2.86s-1,1.68-.35,3,6.9.52,6.11,3c-.67,2.07.16,3.35.88,3.44,3,.36,8.58,4,8.58,4s8.25,10.48,15.7,8.33a13.15,13.15,0,0,0,7.2-7.41c1.92-7.52-8.8-15.45-8.8-15.45S158,72.92,157.58,70c-.11-.71-1.42-1.51-3.47-.78-2.44.87-1.84-5.38-3.16-6s-1.23.59-3,.44-2.37-6.39-3.07-6.56a3.86,3.86,0,0,0-2.65.5c-.87.52-2.13-4.4-1.95-5.09s-1.6-1.3-1.6-1.3a7.8,7.8,0,0,1-2.26.71c-1.56.31-2.45-4.29-2.45-4.29s-1.62-2-3.47-4-1.09-3.44-1.09-3.44C138.05,28.1,135,29.29,135,29.29Z"/><path class="cls-2" d="M69.2,0h-.09C67.2.06,37.5,1.39,41.75,29c0,0,1.93,5,12.79,7.82.43.09.9.21,1.42.34l.16,0h0a44.84,44.84,0,0,0,5.49,1.15,22.35,22.35,0,0,1-5.74.31,4.81,4.81,0,0,0,1.35,5.79l-.2.26s-3.78,2.54,0,6.79a5.37,5.37,0,0,0,0,7s-4,2.51,2.64,11.64c0,0-2.45,12.81,9.49,15.48h0C81.1,83,78.65,70.2,78.65,70.2c6.66-9.13,2.63-11.64,2.63-11.64a5.36,5.36,0,0,0,0-7c3.74-4.25,0-6.79,0-6.79l-.2-.26a4.84,4.84,0,0,0,1.68-4.79A46.65,46.65,0,0,1,72,39.93a.56.56,0,0,1,0-1.11,60,60,0,0,0,15.28-3.08C95.06,32.89,96.56,29,96.56,29,100.81,1.39,71.11.06,69.2,0Z"/></g></g></svg>