<svg xmlns="http://www.w3.org/2000/svg" viewBox="0 0 120.47 108.06"><defs><style>.cls-1{fill:#fff;}</style></defs><g id="Capa_2" data-name="Capa 2"><g id="Capa_1-2" data-name="Capa 1"><path class="cls-1" d="M103.56,47.84l-.09,0A19.56,19.56,0,0,0,97.39,46a.92.92,0,0,1-.11-1.81,32.54,32.54,0,0,1,5.63-.87,3.51,3.51,0,0,0,3.16-2.52,32,32,0,0,0-54.19-30.6,22,22,0,0,0-5.06,8.57A38.09,38.09,0,0,0,45.47,26a.6.6,0,0,1-1.18.08A29.2,29.2,0,0,1,44,12.87a1.77,1.77,0,0,0-1.15-2A32,32,0,0,0,8,62.14a2.3,2.3,0,0,0,3.42,0,24.4,24.4,0,0,1,17.64-8A.94.94,0,0,1,29.49,56a39.22,39.22,0,0,0-12.24,7.72,13.31,13.31,0,0,0-3.92,8.17c-.1,1-.15,2-.15,3.1A32,32,0,0,0,61,102.73a2.71,2.71,0,0,0,1.15-3.31,26.9,26.9,0,0,1-1.5-6.4.89.89,0,0,1,1.69-.48A30.8,30.8,0,0,0,66.22,99h0a32,32,0,1,0,37.34-51.21ZM66.35,70.29c-2.85,2.31-4.9,6.61-5.87,10.25a.59.59,0,0,1-1.15-.05c-.62-4.12-1.95-10-5.22-14.56a.58.58,0,0,1,.79-.82c6.93,4.42,8.54,4.52,11,4.14A.59.59,0,0,1,66.35,70.29Zm24-21.12a22.56,22.56,0,0,1-.66,2.93A22.83,22.83,0,0,1,83.88,62a23.57,23.57,0,0,1-4.11,3.26.69.69,0,0,1-.92-1c3.29-4.25,7.42-11.64,7-18.56-.06-.79,0-1.57-.17-2.34a18.22,18.22,0,0,0-18-15.81A23.67,23.67,0,0,0,55.53,30.4a21,21,0,0,0-4.93,3.74A27.85,27.85,0,0,0,46.75,39a.62.62,0,0,1-1.11-.51,19.11,19.11,0,0,1,4.07-7.15c4.52-5,10.68-8.62,17.93-8.62a23,23,0,0,1,23,21.5c0,.49.06,1,.06,1.51A22.31,22.31,0,0,1,90.39,49.17Z"/></g></g></svg>