<svg width="86" height="85" viewBox="0 0 86 85" fill="none" xmlns="http://www.w3.org/2000/svg">
<path d="M26.3333 34C30.9357 34 34.6667 30.269 34.6667 25.6666C34.6667 21.0643 30.9357 17.3333 26.3333 17.3333C21.731 17.3333 18 21.0643 18 25.6666C18 30.269 21.731 34 26.3333 34Z" fill="white"/>
<path fill-rule="evenodd" clip-rule="evenodd" d="M51.8333 0.333313H34.1667C15.7572 0.333313 0.833344 15.2572 0.833344 33.6666V51.3333C0.833344 69.7428 15.7572 84.6666 34.1667 84.6666H51.8333C70.2428 84.6666 85.1667 69.7428 85.1667 51.3333V33.6666C85.1667 24.8261 81.6548 16.3476 75.4036 10.0964C69.1524 3.84521 60.6739 0.333313 51.8333 0.333313ZM34.1667 6.58331H51.8333C65.358 6.60445 76.794 16.5998 78.625 30H72.1667C54.7782 30.0141 38.6996 39.2427 29.9167 54.25C24.4318 49.893 17.6298 47.5277 10.625 47.5416H7.08334V33.6666C7.10629 18.7184 19.2185 6.60626 34.1667 6.58331ZM10.625 53.7916H7.20834C8.11346 63.6177 14.2912 72.174 23.3333 76.125C23.632 70.5631 24.8864 65.0943 27.0417 59.9583C22.4936 55.9879 16.6623 53.7975 10.625 53.7916ZM51.8333 78.4167H34.1667C32.6002 78.4104 31.0378 78.257 29.5 77.9583C30.0202 54.7556 48.9581 36.2061 72.1667 36.1666H78.9167V51.3333C78.8937 66.2815 66.7815 78.3937 51.8333 78.4167Z" fill="white"/>
</svg>
