<svg xmlns="http://www.w3.org/2000/svg" viewBox="0 0 217.62 65.13"><defs><style>.cls-1{fill:#fff;}</style></defs><g id="Capa_2" data-name="Capa 2"><g id="Capa_1-2" data-name="Capa 1"><path class="cls-1" d="M208.25,30.9a47.47,47.47,0,0,0-8.91-.49C187.13,28,173.4,27.47,157.41,29l-.85.16c-14.35,3.59-28,4.9-48.06,5.5-6.93-1.29-14.74-2.53-23.82-3.89-10.29-1.82-19.9-4.33-18.45-12.53l.42-2.44c1.52-8.6,9-8.41,19.28-6.59,33.84,6.7,52.22,9.74,72.56,9C173.33,19.84,186.71,23,198.21,28A38.47,38.47,0,0,1,208.25,30.9Z"/><path class="cls-1" d="M25.06,11.59l34.31,7.83a18.6,18.6,0,0,1,.25-2.36l.43-2.44a20.47,20.47,0,0,1,1-3.74L23.7,5.94a4.72,4.72,0,0,0-1.3,0L10,7.77a1.68,1.68,0,0,1-.89-.09,6.9,6.9,0,0,1-3-1.63A.87.87,0,0,1,6,5c.5-.8,1.93-1.31,3.28-1.63l1.67-.6c.95-.27,2.32-2,.83-2.46L8.09,0a3.7,3.7,0,0,0-.94,0C4.32.51.51,2.28,0,5.52c.13,2,5,4.78,8.17,5.75a5.74,5.74,0,0,0,1.42.35l13.78-.22A7.49,7.49,0,0,1,25.06,11.59Z"/><path class="cls-1" d="M217.53,46.38l.08,2.48c.28,8.72-8.07,12.16-18.52,12.5-14.91,3.22-28.85,4.83-40.73,3-20.37-4-36.92-4.06-70.06-2.17-10.44.34-20.37-.15-20.64-8.46l-.08-2.49c-.28-8.71,7.07-10.06,17.51-10.4,34.51-.39,53.12-1.18,72.87-6.11,14.85-1.41,28.6-1.11,40.88,1.47C209.28,35.86,217.25,37.66,217.53,46.38Z"/><path class="cls-1" d="M217.53,46.38l.08,2.48c.28,8.72-8.07,12.16-18.52,12.5-14.91,3.22-28.85,4.83-40.73,3-20.37-4-36.92-4.06-70.06-2.17-10.44.34-20.37-.15-20.64-8.46l-.08-2.49c-.28-8.71,7.07-10.06,17.51-10.4,34.51-.39,53.12-1.18,72.87-6.11,14.85-1.41,28.6-1.11,40.88,1.47C209.28,35.86,217.25,37.66,217.53,46.38Z"/><path class="cls-1" d="M24.32,55.84a7.48,7.48,0,0,1,1.7-.16l35.19.62A17.12,17.12,0,0,1,61,53.94l-.08-2.48a19.11,19.11,0,0,1,.24-3.87l-37.6,2.84a5.07,5.07,0,0,0-1.27.28L10.48,55a1.7,1.7,0,0,1-.89.09,6.85,6.85,0,0,1-3.26-1,.86.86,0,0,1-.36-1c.32-.89,1.62-1.68,2.87-2.28L10.35,50c.88-.45,1.86-2.47.31-2.57L7,47.84a3.63,3.63,0,0,0-.92.22c-2.67,1-6,3.55-5.87,6.83.53,1.9,5.83,3.66,9.18,3.94a5.59,5.59,0,0,0,1.46.06Z"/></g></g></svg>