<svg xmlns="http://www.w3.org/2000/svg" viewBox="0 0 182.95 212.28"><defs><style>.cls-1{fill:#fff;}</style></defs><g id="Capa_2" data-name="Capa 2"><g id="Capa_1-2" data-name="Capa 1"><path class="cls-1" d="M127.8,94.8c-4.7,9.32-8.7,17.37-12.12,24.6a65.85,65.85,0,0,0-14.86-17.24c2.05-4.38,4.22-9.13,6.55-14.35,4.52-9.43,9.51-18,17-14.41l2.24,1.06C134.5,78.23,132.32,85.37,127.8,94.8Z"/><path class="cls-1" d="M141.84,35.53l-16.76,31a17.69,17.69,0,0,1,2.21.87l2.24,1.07a19.72,19.72,0,0,1,3.32,2l14.8-34.68a5,5,0,0,0,.34-1.26L149.57,22a1.82,1.82,0,0,1,.33-.83,6.9,6.9,0,0,1,2.37-2.43.86.86,0,0,1,1,.13c.64.7.74,2.21.7,3.6l.13,1.76c0,1,1.33,2.79,2.14,1.46l1.27-3.42a3.56,3.56,0,0,0,.22-.91c.31-2.85-.37-7-3.35-8.36-1.93-.41-5.94,3.49-7.73,6.33a5.72,5.72,0,0,0-.73,1.27L142.48,34A7.48,7.48,0,0,1,141.84,35.53Z"/><path class="cls-1" d="M97.55,85.5q-1.69,6.36-3.17,12a65,65,0,0,0-19.66-8.34c.46-2,.92-4.14,1.4-6.32,2.47-10.16,5.62-19.59,13.69-17.61l2.42.59C100.7,67.9,100,75.35,97.55,85.5Z"/><path class="cls-1" d="M97.55,85.5q-1.69,6.36-3.17,12a65,65,0,0,0-19.66-8.34c.46-2,.92-4.14,1.4-6.32,2.47-10.16,5.62-19.59,13.69-17.61l2.42.59C100.7,67.9,100,75.35,97.55,85.5Z"/><path class="cls-1" d="M99.42,22.93a7.42,7.42,0,0,1-.31,1.68l-10,33.73a19,19,0,0,1,2.33.4l2.42.59a20.89,20.89,0,0,1,3.66,1.27l7.36-37a4.7,4.7,0,0,0,.07-1.3l-1-12.51a1.91,1.91,0,0,1,.15-.88,7,7,0,0,1,1.82-2.87.88.88,0,0,1,1-.09c.77.55,1.18,2,1.42,3.38l.49,1.7c.2,1,1.88,2.45,2.39,1l.54-3.61a3.69,3.69,0,0,0,0-.94c-.28-2.85-1.8-6.77-5-7.49-2,0-5.09,4.64-6.27,7.78a5.91,5.91,0,0,0-.45,1.4Z"/><path class="cls-1" d="M29.14,159.14q3.64-7,7.57-13.7a1,1,0,0,0-.31-1.39L8.53,124.7a1.06,1.06,0,0,0-1.54.36,58.78,58.78,0,0,0-4.71,11.63,1.07,1.07,0,0,0,.28,1.06,295,295,0,0,0,25,21.73A1.06,1.06,0,0,0,29.14,159.14Z"/><path class="cls-1" d="M64.31,103.31A170.55,170.55,0,0,0,45.94,95.4a1,1,0,0,0-.63,0A58.91,58.91,0,0,0,28.2,102.5a1,1,0,0,0,.13,1.84,274.89,274.89,0,0,1,25.32,13.34A1,1,0,0,0,55,117.4q4.66-6.39,9.62-12.48A1.06,1.06,0,0,0,64.31,103.31Z"/><path class="cls-1" d="M20,177.87c1.74-3.85,3.53-7.65,5.4-11.39a1,1,0,0,0-.3-1.3c-8.31-6.41-16.09-13-23-19.47a1.05,1.05,0,0,0-1.77.66,58.69,58.69,0,0,0,0,13.07,1,1,0,0,0,.25.58,177,177,0,0,0,17.72,18.21A1.06,1.06,0,0,0,20,177.87Z"/><path class="cls-1" d="M40.87,138.5q4.56-7.42,9.46-14.48a1.05,1.05,0,0,0-.33-1.51A258.6,258.6,0,0,0,21.63,108a1.07,1.07,0,0,0-1.12.18,58.81,58.81,0,0,0-9.12,9.92,1.06,1.06,0,0,0,.25,1.49l27.74,19.25A1,1,0,0,0,40.87,138.5Z"/><path class="cls-1" d="M81.12,200.24c1.36-1.54,2.69-3.11,4-4.69q4.65-5.64,8.74-11.6,1.69-2.46,3.31-5a164,164,0,0,0,8.95-16c.92-1.86,1.8-3.73,2.64-5.63a167.34,167.34,0,0,0,6.19-16c.46-1.39.9-2.79,1.33-4.2a1.09,1.09,0,0,0,0-.62,58.61,58.61,0,0,0-3.75-9.73,1,1,0,0,0-1.89,0,450.19,450.19,0,0,1-53,83.74,1,1,0,0,0,.8,1.71h.86a59.87,59.87,0,0,0,10.95-1,1.05,1.05,0,0,0,.53-.28c.6-.57,1.21-1.13,1.8-1.71C75.54,206.34,78.4,203.33,81.12,200.24Z"/><path class="cls-1" d="M16.3,184.45q-5-4.26-9.66-9a1.06,1.06,0,0,0-1.72,1.16,59.29,59.29,0,0,0,8.13,13.46,1.05,1.05,0,0,0,1.79-.28c.57-1.39,1.15-2.77,1.74-4.15A1,1,0,0,0,16.3,184.45Z"/><path class="cls-1" d="M98.19,188.25q-3.1,4.45-6.51,8.74a1.06,1.06,0,0,0,.42,1.63l2.79,1.12a1.05,1.05,0,0,0,1-.16,59.31,59.31,0,0,0,7.77-7.34,1.07,1.07,0,0,0-.19-1.57L99.65,188A1,1,0,0,0,98.19,188.25Z"/><path class="cls-1" d="M110.13,168.38q-3.45,6.75-7.49,13.16a1,1,0,0,0,.28,1.42l4.34,3a1,1,0,0,0,1.48-.28,58.75,58.75,0,0,0,6.62-13.41,1.07,1.07,0,0,0-.28-1.12c-1.08-1-2.18-2-3.29-3.07A1.06,1.06,0,0,0,110.13,168.38Z"/><path class="cls-1" d="M70,98.58l1.72-2a1.06,1.06,0,0,0-.57-1.73,59.58,59.58,0,0,0-11.81-1.19c-.47,0-.93,0-1.39,0,3.63,1.59,7.23,3.28,10.78,5.11A1,1,0,0,0,70,98.58Z"/><path class="cls-1" d="M92.17,103.64A59.1,59.1,0,0,0,79.9,97.38a1.06,1.06,0,0,0-1.16.29q-2,2.2-3.94,4.47c-1.33,1.53-2.63,3.08-3.92,4.65q-5.84,7-11.26,14.51c-1.19,1.62-2.35,3.25-3.5,4.9q-5.67,8.1-10.9,16.68c-1,1.71-2.07,3.43-3.08,5.16q-4.56,7.77-8.74,15.9c-.93,1.8-1.85,3.6-2.75,5.43q-3.34,6.78-6.46,13.81c-.85,1.9-1.68,3.8-2.49,5.73-.93,2.18-1.83,4.37-2.72,6.59a1,1,0,0,0,.26,1.18,59.33,59.33,0,0,0,8.87,6.73,1.06,1.06,0,0,0,1.46-.35C50.47,169,71.52,136.2,92.45,105.11A1.06,1.06,0,0,0,92.17,103.64Z"/><path class="cls-1" d="M86.33,203.42l-2.39,2.74a.41.41,0,0,0,.51.64l3.19-1.73a1.06,1.06,0,0,0-.08-1.9l0,0A1,1,0,0,0,86.33,203.42Z"/><path class="cls-1" d="M107.43,118.38a59.83,59.83,0,0,0-8.72-9.68,1.06,1.06,0,0,0-1.58.21c-20.7,30.74-41.5,63.15-62.16,96.83a1.05,1.05,0,0,0,.46,1.52,58.66,58.66,0,0,0,13.17,4,1.1,1.1,0,0,0,1-.37,444.26,444.26,0,0,0,57.91-91.46A1.09,1.09,0,0,0,107.43,118.38Z"/><path class="cls-1" d="M116,163.79a1.05,1.05,0,0,0,1.75-.58,60.44,60.44,0,0,0,.88-10.23c0-1.2,0-2.39-.12-3.57-1.44,3.87-3,7.69-4.68,11.42A1,1,0,0,0,114,162Z"/><path class="cls-1" d="M142,139.36q3.94,4.44,7.61,9a.8.8,0,0,0,1.07.16l21.1-14.44a.8.8,0,0,0,.16-1.18,44.17,44.17,0,0,0-6.93-6.44.81.81,0,0,0-.82-.08,222.36,222.36,0,0,0-22,11.77A.8.8,0,0,0,142,139.36Z"/><path class="cls-1" d="M171.9,179.09a127.44,127.44,0,0,0,10.5-10.81.84.84,0,0,0,.19-.43,44.36,44.36,0,0,0-.43-14,.79.79,0,0,0-1.33-.41,204.71,204.71,0,0,1-16.19,14.25.79.79,0,0,0-.17,1.05q3.25,5,6.21,10.12A.79.79,0,0,0,171.9,179.09Z"/><path class="cls-1" d="M131.28,127.89q3.38,3.39,6.57,6.87a.8.8,0,0,0,1,.13c6.74-4.13,13.48-7.84,19.87-10.94a.8.8,0,0,0,0-1.43,44.72,44.72,0,0,0-4.56-2,45.33,45.33,0,0,0-4.64-1.48.87.87,0,0,0-.48,0,134,134,0,0,0-17.58,7.6A.79.79,0,0,0,131.28,127.89Z"/><path class="cls-1" d="M153.41,153.15q4,5.21,7.66,10.55a.79.79,0,0,0,1.15.17,194.08,194.08,0,0,0,17.85-16.08.8.8,0,0,0,.17-.83,44.37,44.37,0,0,0-4.54-9.09.79.79,0,0,0-1.11-.22l-21,14.37A.78.78,0,0,0,153.41,153.15Z"/><path class="cls-1" d="M142.42,206.73a43.89,43.89,0,0,1-7.86,0,.87.87,0,0,1-.43-.16c-.88-.68-1.75-1.37-2.6-2.07a125.6,125.6,0,0,1-9.6-8.64c-1.11-1.11-2.19-2.23-3.26-3.37-1.35-1.45-2.67-2.93-3.92-4.44a64.6,64.6,0,0,0,5.18-10,352.63,352.63,0,0,0,23,27.3A.79.79,0,0,1,142.42,206.73Z"/><path class="cls-1" d="M127.64,123.53q4.32-2.36,8.92-4.4a.79.79,0,0,0-.35-1.52,44.93,44.93,0,0,0-11.66,2.12.79.79,0,0,0-.29,1.33l2.46,2.34A.79.79,0,0,0,127.64,123.53Z"/><path class="cls-1" d="M113.56,195.15c-1,.52-2,1-3,1.5a.79.79,0,0,1-.86-.1c-.25-.21-.49-.41-.73-.63,1.1-1.27,2.16-2.59,3.16-3.95.56.66,1.13,1.3,1.71,1.94A.79.79,0,0,1,113.56,195.15Z"/><path class="cls-1" d="M173.72,184.33l.93,1.74a.79.79,0,0,0,1.36.07,44.31,44.31,0,0,0,4-8c.13-.33.24-.66.35-1-2.09,2.14-4.24,4.22-6.48,6.22A.79.79,0,0,0,173.72,184.33Z"/><path class="cls-1" d="M171.9,191.66a44.12,44.12,0,0,1-7.7,7,.79.79,0,0,1-1.11-.19q-18.36-26-38.59-52.83a64.72,64.72,0,0,0-7-22.91c.24-.13.48-.26.73-.38a.83.83,0,0,1,.91.14q2,1.83,3.91,3.68c1.14,1.09,2.25,2.18,3.36,3.29q4.12,4.08,8,8.25c1,1.13,2.06,2.26,3.08,3.4q4.6,5.13,8.85,10.42,1.43,1.75,2.81,3.55,4.64,6,8.82,12.15c.86,1.25,1.7,2.5,2.52,3.78,2.53,3.88,4.94,7.82,7.19,11.82.76,1.33,1.51,2.66,2.23,4s1.41,2.65,2.09,4A.79.79,0,0,1,171.9,191.66Z"/><path class="cls-1" d="M95.5,167.75l-1.28-2.42a.32.32,0,0,0-.6.2l.37,2.7a.8.8,0,0,0,1.36.46l0,0A.79.79,0,0,0,95.5,167.75Z"/><path class="cls-1" d="M158.88,201.87a45.4,45.4,0,0,1-9.15,3.55.85.85,0,0,1-.8-.23,351.4,351.4,0,0,1-27.15-32.13,65.06,65.06,0,0,0,3.13-19.39q17.85,23.79,34.25,47A.8.8,0,0,1,158.88,201.87Z"/><path class="cls-1" d="M115.46,199.24a.79.79,0,0,0-.06,1.39,44.88,44.88,0,0,0,7,3.37c.84.32,1.69.6,2.55.87q-3.53-3.08-6.79-6.36a.79.79,0,0,0-.92-.15Z"/></g></g></svg>