<svg xmlns="http://www.w3.org/2000/svg" viewBox="0 0 178.02 86.84"><defs><style>.cls-1{fill:#fff;}.cls-2{fill:none;stroke:#fff;stroke-miterlimit:10;stroke-width:6px;}</style></defs><g id="Capa_2" data-name="Capa 2"><g id="Capa_1-2" data-name="Capa 1"><path class="cls-1" d="M3.38,44.29a38.82,38.82,0,0,0,22.53,39L28,77.18a6.83,6.83,0,1,1,7.35,2.5l-2.09,6.15A38.82,38.82,0,0,0,75,68.53Z"/><path class="cls-1" d="M80.67,51.46A38.85,38.85,0,0,0,62,14.75,8.24,8.24,0,0,0,46.42,9.44,38.85,38.85,0,0,0,9.22,27.27ZM49.54,9.79a5.18,5.18,0,0,1,9.8,3.33.43.43,0,0,1-.05.12,41.54,41.54,0,0,0-4.79-2,39.73,39.73,0,0,0-5-1.33S49.52,9.83,49.54,9.79Z"/><rect class="cls-1" x="-2.08" y="42.94" width="88.02" height="9.82" rx="4.91" transform="translate(17.62 -10.95) rotate(18.77)"/><circle class="cls-2" cx="54.14" cy="11.92" r="8.92"/><path class="cls-1" d="M128.57,10.06a65.26,65.26,0,0,1,19-1.42,38.59,38.59,0,0,0-43.85,12.9A63.79,63.79,0,0,1,128.57,10.06Z"/><path class="cls-1" d="M104.5,35.47A29.45,29.45,0,0,1,109,31a52.85,52.85,0,0,1,21.76-11.06l1.07-.23a59.72,59.72,0,0,1,11.41-1.18c6.61,0,15.22.78,22.74,5.49,2.35,1.47,8.8,5.29,10.58,13.07,0-.07.08-.16.12-.25a14.69,14.69,0,0,0-5.24-18.49c-.63-.42-2.33-1.53-2.63-1.69-11.88-6.4-25.65-7-39.66-3.86A59,59,0,0,0,99.67,28.94,33.18,33.18,0,0,0,91,43.54c-1.76,6.81-.62,13.81,5.27,17.67l.07,0C94.55,51,98.18,43.4,104.5,35.47Z"/><path class="cls-1" d="M173.37,41.35a16.41,16.41,0,0,0-8.45-13.3l-.08-.05a45.16,45.16,0,0,0-21.44-5.25A50.81,50.81,0,0,0,132.31,24c-12.51,2.79-22.72,9.94-28.79,19a21.41,21.41,0,0,0,1.21,25.3,38.47,38.47,0,0,0,37.32,13.85l-6.13-18.37a6.33,6.33,0,0,1-3.26-3.62A7.08,7.08,0,0,1,146,55.55a6.31,6.31,0,0,1-.32,4.83l6.17,18.46a38.73,38.73,0,0,0,21.53-31.92A39.78,39.78,0,0,0,173.37,41.35Z"/></g></g></svg>