<svg xmlns="http://www.w3.org/2000/svg" viewBox="0 0 171.71 124.66"><defs><style>.cls-1{fill:#fff;}</style></defs><g id="Capa_2" data-name="Capa 2"><g id="Capa_1-2" data-name="Capa 1"><path class="cls-1" d="M82.27,65.45q3.65-7,7.56-13.69a1,1,0,0,0-.31-1.39L61.65,31a1.07,1.07,0,0,0-1.54.36A59.64,59.64,0,0,0,55.4,43a1.09,1.09,0,0,0,.28,1.06,294.79,294.79,0,0,0,25,21.73A1.06,1.06,0,0,0,82.27,65.45Z"/><path class="cls-1" d="M117.43,9.62A172.42,172.42,0,0,0,99.07,1.71a1.16,1.16,0,0,0-.64,0A59,59,0,0,0,81.32,8.81a1,1,0,0,0,.13,1.84A274.89,274.89,0,0,1,106.77,24a1,1,0,0,0,1.38-.28q4.68-6.39,9.62-12.48A1.06,1.06,0,0,0,117.43,9.62Z"/><path class="cls-1" d="M73.12,84.18q2.61-5.78,5.41-11.39a1.07,1.07,0,0,0-.3-1.3c-8.31-6.41-16.1-13-23-19.47a1.05,1.05,0,0,0-1.77.66,58.69,58.69,0,0,0,0,13.07,1.21,1.21,0,0,0,.25.58A178.2,178.2,0,0,0,71.46,84.55,1.06,1.06,0,0,0,73.12,84.18Z"/><path class="cls-1" d="M94,44.81q4.56-7.43,9.46-14.48a1.05,1.05,0,0,0-.33-1.51A258.6,258.6,0,0,0,74.75,14.28a1.07,1.07,0,0,0-1.12.18,59.62,59.62,0,0,0-9.12,9.92,1.06,1.06,0,0,0,.26,1.49L92.5,45.13A1.05,1.05,0,0,0,94,44.81Z"/><path class="cls-1" d="M134.24,106.55c1.36-1.54,2.69-3.11,4-4.69q4.65-5.64,8.74-11.6,1.69-2.46,3.31-5a164,164,0,0,0,8.95-16c.92-1.86,1.8-3.73,2.64-5.63a167.34,167.34,0,0,0,6.19-16c.46-1.39.9-2.79,1.33-4.2a1.19,1.19,0,0,0,0-.62,60.42,60.42,0,0,0-3.75-9.73,1.06,1.06,0,0,0-1.9,0,449.68,449.68,0,0,1-53,83.74,1.05,1.05,0,0,0,.8,1.71h.87a59.76,59.76,0,0,0,10.94-1,1.12,1.12,0,0,0,.54-.28c.6-.57,1.2-1.13,1.79-1.71C128.66,112.65,131.52,109.64,134.24,106.55Z"/><path class="cls-1" d="M69.42,90.76q-5-4.24-9.66-9A1.06,1.06,0,0,0,58,82.93a59.29,59.29,0,0,0,8.13,13.46A1.06,1.06,0,0,0,68,96.12c.58-1.4,1.15-2.78,1.74-4.16A1,1,0,0,0,69.42,90.76Z"/><path class="cls-1" d="M151.31,94.56q-3.1,4.45-6.51,8.74a1.06,1.06,0,0,0,.42,1.63c.94.39,1.87.76,2.79,1.12a1.07,1.07,0,0,0,1.05-.15,60.11,60.11,0,0,0,7.78-7.35,1.07,1.07,0,0,0-.2-1.57l-3.87-2.68A1.06,1.06,0,0,0,151.31,94.56Z"/><path class="cls-1" d="M163.26,74.69q-3.45,6.75-7.5,13.16a1,1,0,0,0,.29,1.42l4.33,3a1.06,1.06,0,0,0,1.49-.27,59,59,0,0,0,6.61-13.42,1.07,1.07,0,0,0-.27-1.12c-1.08-1-2.18-2-3.3-3.07A1.05,1.05,0,0,0,163.26,74.69Z"/><path class="cls-1" d="M123.07,4.89l1.72-2a1.05,1.05,0,0,0-.56-1.73A59.73,59.73,0,0,0,112.42,0c-.47,0-.94,0-1.4,0,3.64,1.58,7.24,3.27,10.78,5.1A1,1,0,0,0,123.07,4.89Z"/><path class="cls-1" d="M145.29,10A59.09,59.09,0,0,0,133,3.69a1.06,1.06,0,0,0-1.16.29q-2,2.21-3.94,4.47c-1.33,1.53-2.63,3.08-3.92,4.65q-5.84,7-11.26,14.51c-1.19,1.62-2.35,3.25-3.5,4.9q-5.67,8.1-10.9,16.68c-1,1.71-2.07,3.43-3.08,5.16q-4.56,7.77-8.74,15.9c-.93,1.8-1.85,3.6-2.75,5.43q-3.34,6.78-6.46,13.81c-.85,1.9-1.68,3.8-2.49,5.73q-1.38,3.27-2.72,6.59a1.06,1.06,0,0,0,.26,1.18,60.16,60.16,0,0,0,8.88,6.74,1.06,1.06,0,0,0,1.45-.36c20.9-34.08,42-66.86,62.88-97.95A1.06,1.06,0,0,0,145.29,10Z"/><path class="cls-1" d="M139.45,109.74l-2.39,2.73a.42.42,0,0,0,.52.64l3.18-1.73a1.06,1.06,0,0,0-.08-1.9h0A1,1,0,0,0,139.45,109.74Z"/><path class="cls-1" d="M160.56,24.7A60,60,0,0,0,151.83,15a1.06,1.06,0,0,0-1.58.21c-20.7,30.74-41.5,63.15-62.16,96.83a1.07,1.07,0,0,0,.46,1.53,59.24,59.24,0,0,0,13.18,4,1.07,1.07,0,0,0,1-.37,443.83,443.83,0,0,0,57.91-91.46A1.07,1.07,0,0,0,160.56,24.7Z"/><path class="cls-1" d="M169.08,70.1a1.05,1.05,0,0,0,1.75-.58,59.43,59.43,0,0,0,.88-10.23c0-1.2-.05-2.39-.12-3.57q-2.15,5.82-4.68,11.42a1,1,0,0,0,.25,1.21Z"/><path class="cls-1" d="M42,114.36l-1.1-.49-.81.43-3.72,1.93h0l3.87,1.67,1.11.48.79-.41,3.45-2.21Z"/><path class="cls-1" d="M41.3,118.39a63.84,63.84,0,0,1-27.12,6.27,28.7,28.7,0,0,1-6.54-.61c-4.46-1.13-6.92-2.83-7.51-5.2-.32-1.28-.19-3.27,2.23-5.46,4.9-4.46,17.08-6.73,24.44-5.4a25.71,25.71,0,0,1,7.65,2.19c.77.35,3.3,1.67,4,2-.26.14-.33.2-.6.34l-3.93,2c-3.1-1.4-4-2.28-8.45-3a25.82,25.82,0,0,0-4.3-.39c-5.7,0-13.1,2.42-16.15,5.2-.85.77-1.08,1.34-1,1.53,0,0,.35,1.21,4.61,2.29s16.26.78,27.7-3.93l3.87,1.67Z"/><path class="cls-1" d="M69.73,120.18c.1.73-.25,1.19-.75,1.25a73.34,73.34,0,0,1-9.86.74c-7.71,0-10.17-.36-15.26-2.51.26-.14.8-.51,1.06-.65l3.36-1.93a.82.82,0,0,1,.67,0c5.42,1.94,8.84,2,19.57.43a.8.8,0,0,1,.91.68Z"/><path class="cls-1" d="M59.4,97.69c-1,12.45-8.11,13.37-13.84,18.06l-.05,0-3.15,2-2,.17-.13-.06-3.87-1.67h0l3.72-1.93.81-.43c10.66-5.79,14.27-9.11,15.42-19.87a.62.62,0,0,1,1.16-.23l1.88,3.57A.61.61,0,0,1,59.4,97.69Z"/></g></g></svg>