<svg xmlns="http://www.w3.org/2000/svg" viewBox="0 0 184.67 82.81"><defs><style>.cls-1{fill:#fff;}</style></defs><g id="Capa_2" data-name="Capa 2"><g id="Capa_1-2" data-name="Capa 1"><path class="cls-1" d="M15.07,12.5A145.19,145.19,0,0,0,3.67,37.28a1.2,1.2,0,0,1-1.39.8Q1.16,37.86.06,37.6c0-.33.07-.66.1-1a38.7,38.7,0,0,1,1-5.3A41.09,41.09,0,0,1,8.52,16.16a42,42,0,0,1,3.52-4l.42-.42.74-.7A1.2,1.2,0,0,1,15.07,12.5Z"/><path class="cls-1" d="M44.58,0h-3.3c-.8,0-1.61,0-2.41.07A40.52,40.52,0,0,0,27.62,2.33a1.32,1.32,0,0,0-.63.51C19,15.66,12.54,27.68,9,38.06a1.19,1.19,0,0,0,.92,1.55q6.6,1.26,13.72,2.42a1.21,1.21,0,0,0,1.38-1c2.3-11.25,9.92-24.83,20.1-39.7.3-.45.62-.91.95-1.37Z"/><path class="cls-1" d="M53.21,0a1.2,1.2,0,0,0-1,.51Q49.79,4,47.55,7.32c-8.66,13-15.18,24.89-17.24,34.49a1.18,1.18,0,0,0,1,1.42c4,.59,8.05,1.17,12.21,1.73a1.22,1.22,0,0,0,1.28-.75c2.29-5.74,6.06-11.63,10.63-17.53,1.34-1.73,2.76-3.46,4.22-5.19a1.18,1.18,0,0,0,.29-.78V1.2A1.2,1.2,0,0,0,58.73,0Z"/><path class="cls-1" d="M57.74,32.4a69,69,0,0,0-7.21,11.88A1.21,1.21,0,0,0,51.47,46l7.11.87a1.21,1.21,0,0,0,1.35-1.2V33.09a1.2,1.2,0,0,0-2.17-.72Z"/><path class="cls-1" d="M59.93,53.42V64.24a1.21,1.21,0,0,1-1.36,1.19C38.14,62.92,19.43,60,3.37,56.61a1.2,1.2,0,0,1-.87-.75c-.29-.77-.56-1.55-.81-2.35A41,41,0,0,1,.42,48.07C.23,46.93.09,45.77,0,44.6a1.21,1.21,0,0,1,1.45-1.28c16.61,3.5,36.1,6.4,57.41,8.91A1.2,1.2,0,0,1,59.93,53.42Z"/><path class="cls-1" d="M59.93,72v5.45a1.21,1.21,0,0,1-1.37,1.19C42.48,76.42,27.14,74.06,13,71.54h0c-.91-.86-1.78-1.75-2.61-2.69a41.92,41.92,0,0,1-3.09-3.92l1.24-1.86c15,3,32,5.51,50.38,7.76A1.2,1.2,0,0,1,59.93,72Z"/><path class="cls-1" d="M50,82.81H41.28a40.91,40.91,0,0,1-17.9-4.1C31.94,80.13,40.84,81.49,50,82.81Z"/><path class="cls-1" d="M154.63,79.82a.69.69,0,0,1,.14,1.35,41,41,0,0,1-11.52,1.64h-18a.67.67,0,0,1-.68-.68v-4a.69.69,0,0,1,.74-.69C135,78.29,144.79,79.06,154.63,79.82Z"/><path class="cls-1" d="M177.66,62.5a.7.7,0,0,1,.54,1,42,42,0,0,1-5.7,7.1,42.79,42.79,0,0,1-5.5,4.63.71.71,0,0,1-.45.12c-13.91-1.05-27.74-2.12-41.3-3.27a.68.68,0,0,1-.63-.68V59.3a.69.69,0,0,1,.74-.69C142.5,60,160.06,61.26,177.66,62.5Z"/><path class="cls-1" d="M133.07,53.9l-7.82-.63a.68.68,0,0,1-.63-.68V.69A.68.68,0,0,1,125.3,0H132a.68.68,0,0,1,.68.6c2.94,22.12,4.41,41.81,1.11,52.81A.69.69,0,0,1,133.07,53.9Z"/><path class="cls-1" d="M152.15,55.34l-12.3-.92a.68.68,0,0,1-.61-.85c3.07-12,1.71-31-1.18-52.79a.69.69,0,0,1,.68-.78h4.51a41.15,41.15,0,0,1,9.08,1,.68.68,0,0,1,.53.59c2.82,21.14,3.67,39.84,0,53.24A.68.68,0,0,1,152.15,55.34Z"/><path class="cls-1" d="M172.4,56.8l-13.47-1a.68.68,0,0,1-.61-.84c3.3-13.4,2.67-31.1.2-50.95a.68.68,0,0,1,.94-.72,41.94,41.94,0,0,1,13.59,9.37.78.78,0,0,1,.19.41c2.12,16.7,2.6,31.76-.11,43.17A.69.69,0,0,1,172.4,56.8Z"/><path class="cls-1" d="M184.67,41.4a41.28,41.28,0,0,1-.49,6.33l-4.28-.57A137.4,137.4,0,0,0,179.78,25a.69.69,0,0,1,1.32-.34A41,41,0,0,1,184.67,41.4Z"/><rect class="cls-1" x="64.36" y="1.15" width="9.63" height="80.51"/><polygon class="cls-1" points="107.12 1.15 108.49 81.66 77.53 81.66 77.53 1.15 107.12 1.15"/><polygon class="cls-1" points="120.19 1.15 120.19 81.66 112.03 81.66 110.65 1.15 120.19 1.15"/></g></g></svg>