<svg width="25" height="32" viewBox="0 0 25 32" fill="none" xmlns="http://www.w3.org/2000/svg">
<path d="M12.573 13.9832H8.02296C7.41889 13.9832 6.92921 13.4935 6.92921 12.8894C6.92921 12.2854 7.41889 11.7957 8.02296 11.7957H12.573C13.177 11.7957 13.6667 12.2854 13.6667 12.8894C13.6667 13.4935 13.177 13.9832 12.573 13.9832Z" fill="#F69BC7"/>
<path d="M8.02296 16.3311H16.9771C17.5812 16.3311 18.0709 16.8208 18.0709 17.4248C18.0709 18.0289 17.5812 18.5186 16.9771 18.5186H8.02296C7.41889 18.5186 6.92921 18.0289 6.92921 17.4248C6.92921 16.8208 7.41889 16.3311 8.02296 16.3311Z" fill="#F69BC7"/>
<path d="M15.7521 20.604H8.02296C7.41889 20.604 6.92921 21.0937 6.92921 21.6978C6.92921 22.3018 7.41889 22.7915 8.02296 22.7915H15.7521C16.3562 22.7915 16.8459 22.3018 16.8459 21.6978C16.8459 21.0937 16.3562 20.604 15.7521 20.604Z" fill="#F69BC7"/>
<path fill-rule="evenodd" clip-rule="evenodd" d="M15.8105 0.916506C16.9905 0.914875 17.965 1.83806 18.0271 3.01651C21.4905 3.40593 24.1224 6.3128 24.1667 9.79776V24.5123C24.1587 28.3347 21.062 31.4314 17.2396 31.4394H7.76046C3.93806 31.4314 0.841396 28.3347 0.833374 24.5123V9.79776C0.877726 6.3128 3.50954 3.40593 6.97296 3.01651C7.04219 1.84137 8.01246 0.922167 9.18962 0.916506H15.8105ZM15.8396 3.01651H9.18962V4.75193H15.8396V3.01651ZM21.9792 24.5123C21.9792 27.1323 19.8596 29.2585 17.2396 29.2665H7.76045C5.1405 29.2585 3.02086 27.1323 3.02087 24.5123V9.79776C3.02668 7.47736 4.71161 5.50235 7.00212 5.13109C7.18114 6.19765 8.10817 6.97635 9.18962 6.96859H15.8105C16.8919 6.97635 17.8189 6.19765 17.998 5.13109C20.2885 5.50235 21.9734 7.47736 21.9792 9.79776V24.5123Z" fill="#F69BC7"/>
</svg>
