<svg width="31" height="31" viewBox="0 0 31 31" fill="none" xmlns="http://www.w3.org/2000/svg">
<path fill-rule="evenodd" clip-rule="evenodd" d="M6.47218 0.916504H24.5277C27.596 0.916504 30.0833 3.40381 30.0833 6.47206V24.5276C30.0833 27.5959 27.596 30.0832 24.5277 30.0832H6.47218C3.40393 30.0832 0.916626 27.5959 0.916626 24.5276V6.47206C0.916626 3.40381 3.40393 0.916504 6.47218 0.916504ZM24.5277 27.9998C26.4454 27.9998 28 26.4453 28 24.5276V6.47206C28 4.5544 26.4454 2.99984 24.5277 2.99984H6.47218C4.55452 2.99984 2.99996 4.5544 2.99996 6.47206V24.5276C2.99996 26.4453 4.55452 27.9998 6.47218 27.9998H24.5277Z" fill="#F69BC7"/>
<path d="M23.1388 10.9859H18.9722C18.3969 10.9859 17.9305 11.4523 17.9305 12.0276C17.9305 12.6029 18.3969 13.0693 18.9722 13.0693H20.2638L15.3194 18.0137L12.5416 15.2359C11.8045 14.5014 10.6121 14.5014 9.87496 15.2359L6.24996 18.7498C5.84377 19.1565 5.84377 19.8154 6.24996 20.2221C6.44424 20.4188 6.70959 20.5289 6.98607 20.5276C7.26286 20.5305 7.52881 20.4201 7.72218 20.2221L11.1527 16.7915L13.9305 19.5693C14.6724 20.3055 15.8692 20.3055 16.6111 19.5693L22.0416 14.1387V16.1943C22.0416 16.7696 22.508 17.2359 23.0833 17.2359C23.6586 17.2359 24.125 16.7696 24.125 16.1943V12.0276C24.1189 11.4761 23.6892 11.0222 23.1388 10.9859Z" fill="#F69BC7"/>
</svg>
